<svg xmlns="http://www.w3.org/2000/svg" viewBox="0 0 304 236"><defs><style>.cls-1{fill:#2d2d2c;}.cls-2{fill:#ffd320;}.cls-3{font-size:44.95px;font-family:LEMONMILK-Bold, LEMON MILK;font-weight:700;}.cls-3,.cls-4{fill:#fff;}.cls-4{font-size:24.59px;font-family:AristotelicaProTx-Extlt, Aristotelica Pro Text;}</style></defs><g id="Layer_1" data-name="Layer 1"><rect class="cls-1" width="304" height="236"/></g><g id="Layer_2" data-name="Layer 2"><path class="cls-2" d="M107,121.44a6.48,6.48,0,0,0-5.86-8.19v3.26a3.24,3.24,0,0,1,2.85,3.21,27.36,27.36,0,0,1-3.45,9.71,29.16,29.16,0,1,1,3.58-18.83,9.64,9.64,0,0,1,3.48,2.22,32.37,32.37,0,1,0-.6,8.62Z"/><path class="cls-2" d="M75.26,89a25.92,25.92,0,1,0,25.87,27.56v-3.26A25.92,25.92,0,0,0,75.26,89Z"/><path class="cls-2" d="M106.55,133.6l-.09-.09a1.55,1.55,0,0,0-2.2,0L93.08,144.69a1.55,1.55,0,0,0,0,2.2l.09.08a1.55,1.55,0,0,0,2.2,0l11.18-11.17A1.55,1.55,0,0,0,106.55,133.6Z"/><path class="cls-2" d="M109.11,137.45l-.09-.1a1.56,1.56,0,0,0-2.19,0l-9.9,9.9a1.55,1.55,0,0,0,0,2.2l.09.09a1.55,1.55,0,0,0,2.2,0l9.89-9.89A1.55,1.55,0,0,0,109.11,137.45Z"/><path class="cls-2" d="M111.41,141.57l-.1-.09a1.55,1.55,0,0,0-2.2,0l-8.06,8.06a1.57,1.57,0,0,0,0,2.2l.09.1a1.57,1.57,0,0,0,2.2,0l1.21-1.21a4.37,4.37,0,0,0,5.46-5.47l1.4-1.39A1.57,1.57,0,0,0,111.41,141.57Z"/><text class="cls-3" transform="translate(118.54 124.32)">LUGO</text><text class="cls-4" transform="translate(118.54 151.6)">ENGENHARIA</text></g></svg>